<svg xmlns="http://www.w3.org/2000/svg" xmlns:xlink="http://www.w3.org/1999/xlink" version="1.1" width="1041px" height="251px" viewBox="-0.5 -0.5 1041 251"><defs/><g><g id="cell-24"><path d="M 120 80 L 150 80 L 150 120 L 173.63 120" fill="none" stroke="rgb(0, 0, 0)" stroke-miterlimit="10" pointer-events="stroke"/><path d="M 178.88 120 L 171.88 123.5 L 173.63 120 L 171.88 116.5 Z" fill="rgb(0, 0, 0)" stroke="rgb(0, 0, 0)" stroke-miterlimit="10" pointer-events="all"/></g><g id="cell-9"><rect x="0" y="50" width="120" height="60" rx="9" ry="9" fill="#fff2cc" stroke="#d6b656" pointer-events="all"/><g fill="rgb(0, 0, 0)" font-family="Helvetica" text-anchor="middle" font-size="12px"><text x="59.5" y="84.5">Dataframe</text></g></g><g id="cell-26"><path d="M 300 120 L 340.63 120" fill="none" stroke="rgb(0, 0, 0)" stroke-miterlimit="10" pointer-events="stroke"/><path d="M 345.88 120 L 338.88 123.5 L 340.63 120 L 338.88 116.5 Z" fill="rgb(0, 0, 0)" stroke="rgb(0, 0, 0)" stroke-miterlimit="10" pointer-events="all"/></g><g id="cell-16"><rect x="180" y="90" width="120" height="60" rx="9" ry="9" fill="#dae8fc" stroke="#6c8ebf" pointer-events="all"/><g fill="rgb(0, 0, 0)" font-family="Helvetica" text-anchor="middle" font-size="12px"><text x="239.5" y="117.5">Unresolved Logical </text><text x="239.5" y="131.5">Plan</text></g></g><g id="cell-27"><path d="M 320 190 L 320 136.37" fill="none" stroke="rgb(0, 0, 0)" stroke-miterlimit="10" pointer-events="stroke"/><path d="M 320 131.12 L 323.5 138.12 L 320 136.37 L 316.5 138.12 Z" fill="rgb(0, 0, 0)" stroke="rgb(0, 0, 0)" stroke-miterlimit="10" pointer-events="all"/></g><g id="cell-17"><rect x="260" y="190" width="120" height="60" rx="9" ry="9" fill="#fff2cc" stroke="#d6b656" pointer-events="all"/><g fill="rgb(0, 0, 0)" font-family="Helvetica" text-anchor="middle" font-size="12px"><text x="319.5" y="224.5">Catalog</text></g></g><g id="cell-29"><path d="M 467 120 L 487 120 L 470 120 L 483.63 120" fill="none" stroke="rgb(0, 0, 0)" stroke-miterlimit="10" pointer-events="stroke"/><path d="M 488.88 120 L 481.88 123.5 L 483.63 120 L 481.88 116.5 Z" fill="rgb(0, 0, 0)" stroke="rgb(0, 0, 0)" stroke-miterlimit="10" pointer-events="all"/></g><g id="cell-18"><rect x="347" y="90" width="120" height="60" rx="9" ry="9" fill="#dae8fc" stroke="#6c8ebf" pointer-events="all"/><g fill="rgb(0, 0, 0)" font-family="Helvetica" text-anchor="middle" font-size="12px"><text x="406.5" y="124.5">Logical Plan</text></g></g><g id="cell-19"><rect x="180" y="0" width="120" height="60" fill="#f5f5f5" stroke="#666666" pointer-events="all"/><g fill="#333333" font-family="Helvetica" text-anchor="middle" font-size="12px"><text x="239.5" y="34.5">Analyse</text></g></g><g id="cell-20"><rect x="347" y="0" width="263" height="60" fill="#f5f5f5" stroke="#666666" pointer-events="all"/><g fill="#333333" font-family="Helvetica" text-anchor="middle" font-size="12px"><text x="478" y="34.5">Logische Optimierung</text></g></g><g id="cell-21"><rect x="650" y="0" width="120" height="60" fill="#f5f5f5" stroke="#666666" pointer-events="all"/><g fill="#333333" font-family="Helvetica" text-anchor="middle" font-size="12px"><text x="709.5" y="34.5">Physical Planning</text></g></g><g id="cell-25"><path d="M 120 160 L 150 160 L 150 120 L 173.63 120" fill="none" stroke="rgb(0, 0, 0)" stroke-miterlimit="10" pointer-events="stroke"/><path d="M 178.88 120 L 171.88 123.5 L 173.63 120 L 171.88 116.5 Z" fill="rgb(0, 0, 0)" stroke="rgb(0, 0, 0)" stroke-miterlimit="10" pointer-events="all"/></g><g id="cell-23"><rect x="0" y="130" width="120" height="60" rx="9" ry="9" fill="#fff2cc" stroke="#d6b656" pointer-events="all"/><g fill="rgb(0, 0, 0)" font-family="Helvetica" text-anchor="middle" font-size="12px"><text x="59.5" y="164.5">SQL Query</text></g></g><g id="cell-28"><rect x="490" y="90" width="120" height="60" rx="9" ry="9" fill="#dae8fc" stroke="#6c8ebf" pointer-events="all"/><g fill="rgb(0, 0, 0)" font-family="Helvetica" text-anchor="middle" font-size="12px"><text x="549.5" y="117.5">Optimierter logischer</text><text x="549.5" y="131.5">Plan</text></g></g><g id="cell-30"><rect x="640" y="90" width="120" height="60" rx="9" ry="9" fill="#dae8fc" stroke="#6c8ebf" pointer-events="all"/><g fill="rgb(0, 0, 0)" font-family="Helvetica" text-anchor="middle" font-size="12px"><text x="699.5" y="124.5">Physical Plans</text></g></g><g id="cell-31"><rect x="650" y="100" width="120" height="60" rx="9" ry="9" fill="#dae8fc" stroke="#6c8ebf" pointer-events="all"/><g fill="rgb(0, 0, 0)" font-family="Helvetica" text-anchor="middle" font-size="12px"><text x="709.5" y="134.5">Physical Plans</text></g></g><g id="cell-32"><rect x="660" y="110" width="120" height="60" rx="9" ry="9" fill="#dae8fc" stroke="#6c8ebf" pointer-events="all"/><g fill="rgb(0, 0, 0)" font-family="Helvetica" text-anchor="middle" font-size="12px"><text x="719.5" y="144.5">Physical Plans</text></g></g><g id="cell-34"><path d="M 610 120 L 633.63 120" fill="none" stroke="rgb(0, 0, 0)" stroke-miterlimit="10" pointer-events="stroke"/><path d="M 638.88 120 L 631.88 123.5 L 633.63 120 L 631.88 116.5 Z" fill="rgb(0, 0, 0)" stroke="rgb(0, 0, 0)" stroke-miterlimit="10" pointer-events="all"/></g><g id="cell-44"><path d="M 830 130 L 850 130 L 830 130 L 843.63 130" fill="none" stroke="rgb(0, 0, 0)" stroke-miterlimit="10" pointer-events="stroke"/><path d="M 848.88 130 L 841.88 133.5 L 843.63 130 L 841.88 126.5 Z" fill="rgb(0, 0, 0)" stroke="rgb(0, 0, 0)" stroke-miterlimit="10" pointer-events="all"/></g><g id="cell-35"><rect x="760" y="120" width="120" height="20" fill="rgb(255, 255, 255)" stroke="rgb(0, 0, 0)" transform="rotate(-90,820,130)" pointer-events="all"/><g fill="rgb(0, 0, 0)" font-family="Helvetica" text-anchor="middle" font-size="12px" transform="rotate(-90,820,130)"><text x="819.5" y="134.5">Cost Model</text></g></g><g id="cell-36"><path d="M 780 130 L 810 100" fill="none" stroke="rgb(0, 0, 0)" stroke-miterlimit="10" pointer-events="stroke"/></g><g id="cell-37"><path d="M 780 140 L 811 141.16" fill="none" stroke="rgb(0, 0, 0)" stroke-miterlimit="10" pointer-events="stroke"/></g><g id="cell-38"><path d="M 780 140 L 811 171.64" fill="none" stroke="rgb(0, 0, 0)" stroke-miterlimit="10" pointer-events="stroke"/></g><g id="cell-39"><rect x="850" y="100" width="120" height="60" rx="9" ry="9" fill="#dae8fc" stroke="#6c8ebf" pointer-events="all"/><g fill="rgb(0, 0, 0)" font-family="Helvetica" text-anchor="middle" font-size="12px"><text x="909.5" y="127.5">selected</text><text x="909.5" y="141.5">Physical Plan</text></g></g><g id="cell-45"><rect x="850" y="0" width="180" height="60" fill="#f5f5f5" stroke="#666666" pointer-events="all"/><g fill="#333333" font-family="Helvetica" text-anchor="middle" font-size="12px"><text x="939.5" y="34.5">Code Generation</text></g></g><g id="cell-46"><rect x="990" y="100" width="50" height="60" rx="7.5" ry="7.5" fill="#dae8fc" stroke="#6c8ebf" pointer-events="all"/><g fill="rgb(0, 0, 0)" font-family="Helvetica" text-anchor="middle" font-size="12px"><text x="1014.5" y="134.5">RDDs</text></g></g></g></svg>